<?xml version="1.0" encoding="utf-8"?>
<!-- Generator: Adobe Illustrator 27.8.1, SVG Export Plug-In . SVG Version: 6.00 Build 0)  -->
<svg version="1.1" id="Layer_1" xmlns="http://www.w3.org/2000/svg" xmlns:xlink="http://www.w3.org/1999/xlink" x="0px" y="0px"
	 viewBox="0 0 153 47" style="enable-background:new 0 0 153 47;" xml:space="preserve">
<style type="text/css">
	.st0{enable-background:new    ;}
	.st1{fill:#EEEAE7;}
</style>
<g class="st0">
	<path class="st1" d="M17.65,10.22v27h-6.8v-27H17.65z"/>
	<path class="st1" d="M39.71,24.16v13.07h-6.04V26.08c0-2.91-1.02-3.89-3.02-3.89c-2.3,0-3.63,1.17-3.63,3.85v11.18h-6.04V17.89
		h6.04v2.79h0.08c1.02-1.78,2.91-3.4,6.34-3.4C37.18,17.28,39.71,19.74,39.71,24.16z"/>
	<path class="st1" d="M61.23,24.16v13.07h-6.04V26.08c0-2.91-1.02-3.89-3.02-3.89c-2.3,0-3.63,1.17-3.63,3.85v11.18H42.5V17.89h6.04
		v2.79h0.08c1.02-1.78,2.91-3.4,6.34-3.4C58.7,17.28,61.23,19.74,61.23,24.16z"/>
	<path class="st1" d="M76.79,31.37h6c-1.06,3.89-4.08,6.46-9.33,6.46c-6.42,0-10.31-4.23-10.31-10.27c0-5.89,3.81-10.27,9.97-10.27
		c6.61,0,9.97,4.83,9.97,11.86H69.2c0,2.72,2,4.15,4.15,4.15C75.43,33.3,76.41,32.32,76.79,31.37z M69.2,25.48h7.85
		c0-2.68-1.62-4.04-3.93-4.04S69.2,22.8,69.2,25.48z"/>
	<path class="st1" d="M97.67,17.7v5.29h-0.08c-3.1-0.57-6.38,1.13-6.38,5.25v8.99h-6.04V17.89h6.04v3.17h0.08
		c0.94-2.15,2.61-3.51,4.72-3.51C96.54,17.55,96.99,17.55,97.67,17.7z"/>
	<path class="st1" d="M117.65,21.7v5.55h-10.84v9.97h-6.8v-27h20.09v5.55h-13.29v5.93H117.65z"/>
	<path class="st1" d="M122.37,12.9c0-1.74,1.32-2.68,3.02-2.68s3.02,0.94,3.02,2.68c0,1.78-1.32,2.68-3.02,2.68
		S122.37,14.68,122.37,12.9z M128.41,17.89v19.34h-6.04V17.89H128.41z"/>
	<path class="st1" d="M139.02,22.42v8.01c0,2.19,0.79,2.19,3.36,2.19v4.53c-1.1,0.23-2.04,0.42-3.74,0.42
		c-4.42,0-5.67-2.34-5.67-6.68v-8.46h-2.68v-4.53h2.68v-5.4h6.04v5.4h3.36v4.53H139.02z"/>
</g>
</svg>
